<?xml version="1.0" encoding="UTF-8" standalone="no"?>
<svg
   xmlns:dc="http://purl.org/dc/elements/1.1/"
   xmlns:cc="http://creativecommons.org/ns#"
   xmlns:rdf="http://www.w3.org/1999/02/22-rdf-syntax-ns#"
   xmlns:svg="http://www.w3.org/2000/svg"
   xmlns="http://www.w3.org/2000/svg"
   width="91.181847mm"
   height="196.25609mm"
   viewBox="0 0 91.181847 196.25609"
   version="1.1"
   id="svg8">
  <defs
     id="defs2" />
  <metadata
     id="metadata5">
    <rdf:RDF>
      <cc:Work
         rdf:about="">
        <dc:format>image/svg+xml</dc:format>
        <dc:type
           rdf:resource="http://purl.org/dc/dcmitype/StillImage" />
        <dc:title></dc:title>
      </cc:Work>
    </rdf:RDF>
  </metadata>
  <g
     id="layer1"
     transform="translate(-64.863559,-9.4163579)">
    <g
       id="g253"
       transform="matrix(0.47262868,0,0,0.39468798,21.138386,5.8742532)">
      <path
         d=""
         style="fill:none;stroke:#000000;stroke-width:0.75;stroke-linecap:round;stroke-linejoin:round;stroke-dasharray:none"
         id="path135" />
      <g
         id="Layer1000">
        <path
           d=""
           style="fill:none;stroke:#000000;stroke-width:0.25;stroke-linecap:round;stroke-linejoin:round;stroke-dasharray:none"
           id="path137" />
        <g
           aria-label="Entrance to Quiet Zone"
           id="text141">
          <path
             d="m 152.44722,30.1315 v -8.589844 h 6.21094 v 1.013672 h -5.07422 v 2.63086 h 4.75195 V 26.194 h -4.75195 v 2.923828 h 5.27344 V 30.1315 Z"
             style="font-size:12px;font-family:Arial;fill:#000000;fill-opacity:1;stroke-opacity:1"
             id="path297" />
          <path
             d="m 160.29292,30.1315 v -6.222656 h 0.94922 v 0.884766 q 0.68555,-1.025391 1.98047,-1.025391 0.5625,0 1.03125,0.205078 0.47461,0.199219 0.70898,0.527344 0.23438,0.328125 0.32813,0.779297 0.0586,0.292968 0.0586,1.02539 V 30.1315 h -1.05468 v -3.785156 q 0,-0.644531 -0.12305,-0.960938 -0.12305,-0.322265 -0.43945,-0.509765 -0.31055,-0.19336 -0.73243,-0.19336 -0.67382,0 -1.16601,0.427735 -0.48633,0.427734 -0.48633,1.623047 V 30.1315 Z"
             style="font-size:12px;font-family:Arial;fill:#000000;fill-opacity:1;stroke-opacity:1"
             id="path299" />
          <path
             d="m 169.26949,29.188141 0.15234,0.93164 q -0.44531,0.09375 -0.79688,0.09375 -0.57421,0 -0.89062,-0.18164 -0.31641,-0.181641 -0.44531,-0.47461 -0.12891,-0.298828 -0.12891,-1.248046 v -3.580079 h -0.77344 v -0.820312 h 0.77344 v -1.541016 l 1.04883,-0.632812 v 2.173828 h 1.06055 v 0.820312 h -1.06055 v 3.638672 q 0,0.451172 0.0527,0.580078 0.0586,0.128907 0.18164,0.205079 0.12891,0.07617 0.36328,0.07617 0.17579,0 0.4629,-0.04101 z"
             style="font-size:12px;font-family:Arial;fill:#000000;fill-opacity:1;stroke-opacity:1"
             id="path301" />
          <path
             d="m 170.28902,30.1315 v -6.222656 h 0.94922 v 0.943359 q 0.36328,-0.662109 0.66796,-0.873047 0.31055,-0.210937 0.67969,-0.210937 0.5332,0 1.08399,0.339844 l -0.36329,0.978515 q -0.38671,-0.228515 -0.77343,-0.228515 -0.34571,0 -0.6211,0.210937 -0.27539,0.205078 -0.39257,0.574219 -0.17579,0.5625 -0.17579,1.230469 V 30.1315 Z"
             style="font-size:12px;font-family:Arial;fill:#000000;fill-opacity:1;stroke-opacity:1"
             id="path303" />
          <path
             d="m 178.35738,29.363922 q -0.58594,0.498047 -1.13086,0.703125 -0.53907,0.205078 -1.16016,0.205078 -1.02539,0 -1.57617,-0.498047 -0.55078,-0.503906 -0.55078,-1.283203 0,-0.457031 0.20508,-0.832031 0.21093,-0.380859 0.54492,-0.609375 0.33984,-0.228516 0.76172,-0.345703 0.31054,-0.08203 0.9375,-0.158203 1.27734,-0.152344 1.88086,-0.363282 0.006,-0.216796 0.006,-0.27539 0,-0.644531 -0.29882,-0.908203 -0.4043,-0.357422 -1.20118,-0.357422 -0.74414,0 -1.10156,0.263672 -0.35156,0.257812 -0.52148,0.919922 l -1.03125,-0.140625 q 0.14062,-0.66211 0.46289,-1.066407 0.32226,-0.410156 0.93164,-0.626953 0.60937,-0.222656 1.41211,-0.222656 0.79687,0 1.29492,0.1875 0.49805,0.1875 0.73242,0.474609 0.23438,0.28125 0.32813,0.714844 0.0527,0.269531 0.0527,0.972656 v 1.40625 q 0,1.470703 0.0644,1.863282 0.0703,0.386718 0.26954,0.74414 h -1.10157 q -0.16406,-0.328125 -0.21093,-0.767578 z m -0.0879,-2.355469 q -0.57422,0.234375 -1.72266,0.398438 -0.65039,0.09375 -0.91992,0.210937 -0.26953,0.117188 -0.41602,0.345703 -0.14648,0.222657 -0.14648,0.498047 0,0.421875 0.3164,0.703125 0.32227,0.28125 0.9375,0.28125 0.60938,0 1.08399,-0.263672 0.47461,-0.269531 0.69726,-0.732421 0.16993,-0.357422 0.16993,-1.054688 z"
             style="font-size:12px;font-family:Arial;fill:#000000;fill-opacity:1;stroke-opacity:1"
             id="path305" />
          <path
             d="m 180.97066,30.1315 v -6.222656 h 0.94922 v 0.884766 q 0.68554,-1.025391 1.98046,-1.025391 0.5625,0 1.03125,0.205078 0.47461,0.199219 0.70899,0.527344 0.23437,0.328125 0.32812,0.779297 0.0586,0.292968 0.0586,1.02539 V 30.1315 h -1.05469 v -3.785156 q 0,-0.644531 -0.12305,-0.960938 -0.12304,-0.322265 -0.43945,-0.509765 -0.31055,-0.19336 -0.73242,-0.19336 -0.67383,0 -1.16602,0.427735 -0.48633,0.427734 -0.48633,1.623047 V 30.1315 Z"
             style="font-size:12px;font-family:Arial;fill:#000000;fill-opacity:1;stroke-opacity:1"
             id="path307" />
          <path
             d="m 191.70503,27.852203 1.03711,0.134766 q -0.16992,1.072266 -0.87305,1.681641 -0.69726,0.603515 -1.71679,0.603515 -1.27735,0 -2.05664,-0.832031 -0.77344,-0.837891 -0.77344,-2.396484 0,-1.007813 0.33398,-1.763672 0.33399,-0.75586 1.01368,-1.13086 0.68554,-0.380859 1.48828,-0.380859 1.01367,0 1.6582,0.515625 0.64453,0.509766 0.82617,1.453125 l -1.02539,0.158203 q -0.14648,-0.626953 -0.52148,-0.943359 -0.36914,-0.316407 -0.89649,-0.316407 -0.79687,0 -1.29492,0.574219 -0.49805,0.56836 -0.49805,1.804688 0,1.253906 0.48047,1.822265 0.48047,0.56836 1.25391,0.56836 0.62109,0 1.03711,-0.38086 0.41601,-0.380859 0.52734,-1.171875 z"
             style="font-size:12px;font-family:Arial;fill:#000000;fill-opacity:1;stroke-opacity:1"
             id="path309" />
          <path
             d="m 197.90425,28.127594 1.08984,0.134766 q -0.25781,0.955078 -0.95507,1.482421 -0.69727,0.527344 -1.78125,0.527344 -1.36524,0 -2.16797,-0.83789 -0.79688,-0.84375 -0.79688,-2.361329 0,-1.570312 0.8086,-2.4375 0.80859,-0.867187 2.09765,-0.867187 1.24805,0 2.03907,0.849609 0.79101,0.84961 0.79101,2.390625 0,0.09375 -0.006,0.28125 h -4.64062 q 0.0586,1.025391 0.58007,1.570313 0.52149,0.544922 1.30079,0.544922 0.58007,0 0.99023,-0.304688 0.41016,-0.304687 0.65039,-0.972656 z m -3.46289,-1.705078 h 3.47461 q -0.0703,-0.785156 -0.39844,-1.177735 -0.5039,-0.609375 -1.30664,-0.609375 -0.72656,0 -1.22461,0.486329 -0.49219,0.486328 -0.54492,1.300781 z"
             style="font-size:12px;font-family:Arial;fill:#000000;fill-opacity:1;stroke-opacity:1"
             id="path311" />
          <path
             d="m 205.95503,29.188141 0.15235,0.93164 q -0.44532,0.09375 -0.79688,0.09375 -0.57422,0 -0.89062,-0.18164 -0.31641,-0.181641 -0.44532,-0.47461 -0.1289,-0.298828 -0.1289,-1.248046 v -3.580079 h -0.77344 v -0.820312 h 0.77344 v -1.541016 l 1.04883,-0.632812 v 2.173828 h 1.06054 v 0.820312 h -1.06054 v 3.638672 q 0,0.451172 0.0527,0.580078 0.0586,0.128907 0.18164,0.205079 0.12891,0.07617 0.36328,0.07617 0.17578,0 0.46289,-0.04101 z"
             style="font-size:12px;font-family:Arial;fill:#000000;fill-opacity:1;stroke-opacity:1"
             id="path313" />
          <path
             d="m 206.5937,27.020172 q 0,-1.728516 0.96094,-2.560547 0.80274,-0.691406 1.95703,-0.691406 1.28321,0 2.09766,0.84375 0.81445,0.837891 0.81445,2.320312 0,1.201172 -0.36328,1.892579 -0.35742,0.685546 -1.04883,1.066406 -0.68554,0.380859 -1.5,0.380859 -1.30664,0 -2.11523,-0.83789 -0.80274,-0.837891 -0.80274,-2.414063 z m 1.08399,0 q 0,1.195313 0.52148,1.792969 0.52149,0.591797 1.3125,0.591797 0.78516,0 1.30664,-0.597657 0.52149,-0.597656 0.52149,-1.822265 0,-1.154297 -0.52735,-1.746094 -0.52148,-0.597656 -1.30078,-0.597656 -0.79101,0 -1.3125,0.591797 -0.52148,0.591797 -0.52148,1.787109 z"
             style="font-size:12px;font-family:Arial;fill:#000000;fill-opacity:1;stroke-opacity:1"
             id="path315" />
          <path
             d="m 223.63863,29.211578 q 0.79101,0.544922 1.45898,0.796875 l -0.33398,0.791016 q -0.92579,-0.333984 -1.84571,-1.054688 -0.95508,0.533204 -2.10937,0.533204 -1.16602,0 -2.11524,-0.5625 -0.94922,-0.5625 -1.46484,-1.582032 -0.50977,-1.019531 -0.50977,-2.296875 0,-1.271484 0.51563,-2.314453 0.51562,-1.042969 1.46484,-1.58789 0.95508,-0.544922 2.13282,-0.544922 1.18945,0 2.14453,0.568359 0.95507,0.5625 1.45312,1.582031 0.50391,1.013672 0.50391,2.291016 0,1.060547 -0.32227,1.910156 -0.32226,0.84375 -0.97265,1.470703 z m -2.50196,-1.453125 q 0.98438,0.275391 1.62305,0.820313 1.00195,-0.914063 1.00195,-2.748047 0,-1.042969 -0.35742,-1.822266 -0.35156,-0.779297 -1.03711,-1.207031 -0.67969,-0.433594 -1.5293,-0.433594 -1.27148,0 -2.10937,0.873047 -0.83789,0.867188 -0.83789,2.595703 0,1.675782 0.82617,2.572266 0.83203,0.896484 2.12109,0.896484 0.60938,0 1.14844,-0.228515 -0.5332,-0.345703 -1.125,-0.492188 z"
             style="font-size:12px;font-family:Arial;fill:#000000;fill-opacity:1;stroke-opacity:1"
             id="path317" />
          <path
             d="m 230.4062,30.1315 v -0.914062 q -0.72656,1.054687 -1.97461,1.054687 -0.55078,0 -1.03125,-0.210937 -0.4746,-0.210938 -0.70898,-0.527344 -0.22852,-0.322266 -0.32227,-0.785156 -0.0644,-0.310547 -0.0644,-0.984375 v -3.855469 h 1.05469 v 3.451172 q 0,0.826172 0.0644,1.113281 0.0996,0.416016 0.42188,0.65625 0.32226,0.234375 0.79687,0.234375 0.47461,0 0.89063,-0.240234 0.41601,-0.246094 0.58593,-0.66211 0.17579,-0.421875 0.17579,-1.21875 v -3.333984 h 1.05468 V 30.1315 Z"
             style="font-size:12px;font-family:Arial;fill:#000000;fill-opacity:1;stroke-opacity:1"
             id="path319" />
          <path
             d="m 233.00777,22.754547 v -1.212891 h 1.05468 v 1.212891 z m 0,7.376953 v -6.222656 h 1.05468 V 30.1315 Z"
             style="font-size:12px;font-family:Arial;fill:#000000;fill-opacity:1;stroke-opacity:1"
             id="path321" />
          <path
             d="m 239.92769,28.127594 1.08984,0.134766 q -0.25781,0.955078 -0.95508,1.482421 -0.69726,0.527344 -1.78125,0.527344 -1.36523,0 -2.16796,-0.83789 -0.79688,-0.84375 -0.79688,-2.361329 0,-1.570312 0.80859,-2.4375 0.8086,-0.867187 2.09766,-0.867187 1.24805,0 2.03906,0.849609 0.79102,0.84961 0.79102,2.390625 0,0.09375 -0.006,0.28125 h -4.64063 q 0.0586,1.025391 0.58008,1.570313 0.52149,0.544922 1.30078,0.544922 0.58008,0 0.99024,-0.304688 0.41015,-0.304687 0.65039,-0.972656 z m -3.46289,-1.705078 h 3.47461 q -0.0703,-0.785156 -0.39844,-1.177735 -0.50391,-0.609375 -1.30664,-0.609375 -0.72656,0 -1.22461,0.486329 -0.49219,0.486328 -0.54492,1.300781 z"
             style="font-size:12px;font-family:Arial;fill:#000000;fill-opacity:1;stroke-opacity:1"
             id="path323" />
          <path
             d="m 244.64449,29.188141 0.15234,0.93164 q -0.44531,0.09375 -0.79688,0.09375 -0.57421,0 -0.89062,-0.18164 -0.31641,-0.181641 -0.44531,-0.47461 -0.12891,-0.298828 -0.12891,-1.248046 v -3.580079 h -0.77344 v -0.820312 h 0.77344 v -1.541016 l 1.04883,-0.632812 v 2.173828 h 1.06055 v 0.820312 h -1.06055 v 3.638672 q 0,0.451172 0.0527,0.580078 0.0586,0.128907 0.18164,0.205079 0.12891,0.07617 0.36328,0.07617 0.17579,0 0.4629,-0.04101 z"
             style="font-size:12px;font-family:Arial;fill:#000000;fill-opacity:1;stroke-opacity:1"
             id="path325" />
          <path
             d="m 248.45894,30.1315 v -1.054687 l 4.40039,-5.501953 q 0.46875,-0.585938 0.89062,-1.019532 h -4.79296 v -1.013672 h 6.15234 v 1.013672 l -4.82227,5.958985 -0.52148,0.603515 h 5.48437 V 30.1315 Z"
             style="font-size:12px;font-family:Arial;fill:#000000;fill-opacity:1;stroke-opacity:1"
             id="path327" />
          <path
             d="m 255.94722,27.020172 q 0,-1.728516 0.96094,-2.560547 0.80273,-0.691406 1.95703,-0.691406 1.2832,0 2.09765,0.84375 0.81446,0.837891 0.81446,2.320312 0,1.201172 -0.36328,1.892579 -0.35743,0.685546 -1.04883,1.066406 -0.68555,0.380859 -1.5,0.380859 -1.30664,0 -2.11524,-0.83789 -0.80273,-0.837891 -0.80273,-2.414063 z m 1.08398,0 q 0,1.195313 0.52149,1.792969 0.52148,0.591797 1.3125,0.591797 0.78515,0 1.30664,-0.597657 0.52148,-0.597656 0.52148,-1.822265 0,-1.154297 -0.52734,-1.746094 -0.52148,-0.597656 -1.30078,-0.597656 -0.79102,0 -1.3125,0.591797 -0.52149,0.591797 -0.52149,1.787109 z"
             style="font-size:12px;font-family:Arial;fill:#000000;fill-opacity:1;stroke-opacity:1"
             id="path329" />
          <path
             d="m 263.01363,30.1315 v -6.222656 h 0.94921 v 0.884766 q 0.68555,-1.025391 1.98047,-1.025391 0.5625,0 1.03125,0.205078 0.47461,0.199219 0.70899,0.527344 0.23437,0.328125 0.32812,0.779297 0.0586,0.292968 0.0586,1.02539 V 30.1315 h -1.05469 v -3.785156 q 0,-0.644531 -0.12305,-0.960938 -0.12304,-0.322265 -0.43945,-0.509765 -0.31055,-0.19336 -0.73242,-0.19336 -0.67383,0 -1.16602,0.427735 -0.48633,0.427734 -0.48633,1.623047 V 30.1315 Z"
             style="font-size:12px;font-family:Arial;fill:#000000;fill-opacity:1;stroke-opacity:1"
             id="path331" />
          <path
             d="m 273.94722,28.127594 1.08984,0.134766 q -0.25781,0.955078 -0.95507,1.482421 -0.69727,0.527344 -1.78125,0.527344 -1.36524,0 -2.16797,-0.83789 -0.79688,-0.84375 -0.79688,-2.361329 0,-1.570312 0.8086,-2.4375 0.80859,-0.867187 2.09765,-0.867187 1.24805,0 2.03906,0.849609 0.79102,0.84961 0.79102,2.390625 0,0.09375 -0.006,0.28125 h -4.64062 q 0.0586,1.025391 0.58007,1.570313 0.52149,0.544922 1.30078,0.544922 0.58008,0 0.99024,-0.304688 0.41016,-0.304687 0.65039,-0.972656 z m -3.46289,-1.705078 h 3.47461 q -0.0703,-0.785156 -0.39844,-1.177735 -0.50391,-0.609375 -1.30664,-0.609375 -0.72656,0 -1.22461,0.486329 -0.49219,0.486328 -0.54492,1.300781 z"
             style="font-size:12px;font-family:Arial;fill:#000000;fill-opacity:1;stroke-opacity:1"
             id="path333" />
        </g>
      </g>
      <path
         d="M 160.3716,132.6019 V 75.3628 a 57.2392,57.2392 -135 0 0 -40.4743,16.7649 z"
         style="fill:none;stroke:#000000;stroke-width:0.5;stroke-linecap:round;stroke-linejoin:round;stroke-dasharray:none"
         id="path144" />
      <path
         d="m 160.3716,132.6019 h 57.2391 A 57.2392,57.2392 -45 0 0 200.8458,92.1277 Z"
         style="fill:none;stroke:#000000;stroke-width:0.5;stroke-linecap:round;stroke-linejoin:round;stroke-dasharray:none"
         id="path146" />
      <path
         d="m 160.3716,132.6019 v 57.2392 a 57.2392,57.2392 45 0 0 40.4742,-16.765 z"
         style="fill:none;stroke:#000000;stroke-width:0.5;stroke-linecap:round;stroke-linejoin:round;stroke-dasharray:none"
         id="path148" />
      <g
         id="Layer1001">
        <path
           d="m 160.3716,132.6019 h -57.2392 a 57.2392,57.2392 135 0 0 16.7649,40.4742 z"
           style="fill:none;stroke:#000000;stroke-width:0.5;stroke-linecap:round;stroke-linejoin:round;stroke-dasharray:none"
           id="path150" />
        <g
           transform="rotate(135,133.9305,143.5542)"
           id="text154" />
      </g>
      <path
         d="M 160.3716,132.6019 200.8458,92.1277 A 57.2392,57.2392 -90 0 0 160.3716,75.3628 Z"
         style="fill:none;stroke:#000000;stroke-width:0.5;stroke-linecap:round;stroke-linejoin:round;stroke-dasharray:none"
         id="path157" />
      <path
         d="m 160.3716,132.6019 40.4742,40.4742 a 57.2392,57.2392 0 0 0 16.7649,-40.4742 z"
         style="fill:none;stroke:#000000;stroke-width:0.5;stroke-linecap:round;stroke-linejoin:round;stroke-dasharray:none"
         id="path159" />
      <path
         d="m 160.3716,132.6019 -40.4743,40.4742 a 57.2392,57.2392 90 0 0 40.4743,16.765 z"
         style="fill:none;stroke:#000000;stroke-width:0.5;stroke-linecap:round;stroke-linejoin:round;stroke-dasharray:none"
         id="path161" />
      <path
         d="M 160.3716,132.6019 119.8973,92.1277 a 57.2392,57.2392 -180 0 0 -16.7649,40.4742 z"
         style="fill:none;stroke:#000000;stroke-width:0.5;stroke-linecap:round;stroke-linejoin:round;stroke-dasharray:none"
         id="path163" />
      <path
         d="m 160.3716,284.458 v -57.2392 a 57.2392,57.2392 -135 0 0 -40.4743,16.765 z"
         style="fill:none;stroke:#000000;stroke-width:0.5;stroke-linecap:round;stroke-linejoin:round;stroke-dasharray:none"
         id="path165" />
      <path
         d="m 160.3716,284.458 h 57.2391 a 57.2392,57.2392 -45 0 0 -16.7649,-40.4742 z"
         style="fill:none;stroke:#000000;stroke-width:0.5;stroke-linecap:round;stroke-linejoin:round;stroke-dasharray:none"
         id="path167" />
      <path
         d="m 160.3716,284.458 v 57.2391 a 57.2392,57.2392 45 0 0 40.4742,-16.7649 z"
         style="fill:none;stroke:#000000;stroke-width:0.5;stroke-linecap:round;stroke-linejoin:round;stroke-dasharray:none"
         id="path169" />
      <g
         id="Layer1002">
        <path
           d="m 160.3716,284.458 h -57.2392 a 57.2392,57.2392 135 0 0 16.7649,40.4742 z"
           style="fill:none;stroke:#000000;stroke-width:0.5;stroke-linecap:round;stroke-linejoin:round;stroke-dasharray:none"
           id="path171" />
        <g
           transform="rotate(135,133.9305,295.4102)"
           id="text175" />
      </g>
      <path
         d="m 160.3716,284.458 40.4742,-40.4742 a 57.2392,57.2392 -90 0 0 -40.4742,-16.765 z"
         style="fill:none;stroke:#000000;stroke-width:0.5;stroke-linecap:round;stroke-linejoin:round;stroke-dasharray:none"
         id="path178" />
      <path
         d="m 160.3716,284.458 40.4742,40.4742 a 57.2392,57.2392 0 0 0 16.7649,-40.4742 z"
         style="fill:none;stroke:#000000;stroke-width:0.5;stroke-linecap:round;stroke-linejoin:round;stroke-dasharray:none"
         id="path180" />
      <path
         d="m 160.3716,284.458 -40.4743,40.4742 a 57.2392,57.2392 90 0 0 40.4743,16.7649 z"
         style="fill:none;stroke:#000000;stroke-width:0.5;stroke-linecap:round;stroke-linejoin:round;stroke-dasharray:none"
         id="path182" />
      <path
         d="M 160.3716,284.458 119.8973,243.9838 A 57.2392,57.2392 -180 0 0 103.1324,284.458 Z"
         style="fill:none;stroke:#000000;stroke-width:0.5;stroke-linecap:round;stroke-linejoin:round;stroke-dasharray:none"
         id="path184" />
      <path
         d="m 160.3716,436.314 v -57.2392 a 57.2392,57.2392 -135 0 0 -40.4743,16.765 z"
         style="fill:none;stroke:#000000;stroke-width:0.5;stroke-linecap:round;stroke-linejoin:round;stroke-dasharray:none"
         id="path186" />
      <path
         d="m 160.3716,436.314 h 57.2391 a 57.2392,57.2392 -45 0 0 -16.7649,-40.4742 z"
         style="fill:none;stroke:#000000;stroke-width:0.5;stroke-linecap:round;stroke-linejoin:round;stroke-dasharray:none"
         id="path188" />
      <path
         d="m 160.3716,436.314 v 57.2392 a 57.2392,57.2392 45 0 0 40.4742,-16.765 z"
         style="fill:none;stroke:#000000;stroke-width:0.5;stroke-linecap:round;stroke-linejoin:round;stroke-dasharray:none"
         id="path190" />
      <g
         id="Layer1003">
        <path
           d="m 160.3716,436.314 h -57.2392 a 57.2392,57.2392 135 0 0 16.7649,40.4742 z"
           style="fill:none;stroke:#000000;stroke-width:0.5;stroke-linecap:round;stroke-linejoin:round;stroke-dasharray:none"
           id="path192" />
        <g
           transform="rotate(135,133.9305,447.2662)"
           id="text196" />
      </g>
      <path
         d="m 160.3716,436.314 40.4742,-40.4742 a 57.2392,57.2392 -90 0 0 -40.4742,-16.765 z"
         style="fill:none;stroke:#000000;stroke-width:0.5;stroke-linecap:round;stroke-linejoin:round;stroke-dasharray:none"
         id="path199" />
      <path
         d="m 160.3716,436.314 40.4742,40.4742 a 57.2392,57.2392 0 0 0 16.7649,-40.4742 z"
         style="fill:none;stroke:#000000;stroke-width:0.5;stroke-linecap:round;stroke-linejoin:round;stroke-dasharray:none"
         id="path201" />
      <path
         d="m 160.3716,436.314 -40.4743,40.4742 a 57.2392,57.2392 90 0 0 40.4743,16.765 z"
         style="fill:none;stroke:#000000;stroke-width:0.5;stroke-linecap:round;stroke-linejoin:round;stroke-dasharray:none"
         id="path203" />
      <path
         d="M 160.3716,436.314 119.8973,395.8398 A 57.2392,57.2392 -180 0 0 103.1324,436.314 Z"
         style="fill:none;stroke:#000000;stroke-width:0.5;stroke-linecap:round;stroke-linejoin:round;stroke-dasharray:none"
         id="path205" />
    </g>
  </g>
</svg>
